<?xml version="1.0" encoding="utf-8"?>
<!-- Generator: Adobe Illustrator 25.2.0, SVG Export Plug-In . SVG Version: 6.00 Build 0)  -->
<svg version="1.1" id="Layer_1" xmlns="http://www.w3.org/2000/svg" xmlns:xlink="http://www.w3.org/1999/xlink" x="0px" y="0px"
	 viewBox="0 0 500 445.3" style="enable-background:new 0 0 500 445.3;" xml:space="preserve">
<style type="text/css">
	.st0{fill:#61DAFB;}
</style>
<path class="st0" d="M495.3,222.7c0-32.5-40.7-63.3-103.1-82.4c14.4-63.6,8-114.2-20.2-130.4c-6.5-3.8-14-5.7-22.3-5.7v22.3
	c4.6,0,8.2,1,11.3,2.7c13.6,7.8,19.5,37.5,14.9,75.7c-1.1,9.4-2.9,19.3-5.1,29.4c-19.6-4.8-41-8.5-63.5-10.9
	c-13.5-18.5-27.5-35.3-41.6-50c32.6-30.3,63.2-46.9,84-46.9V4.2l0,0c-27.5,0-63.5,19.6-99.9,53.6C213.4,24,177.4,4.6,149.9,4.6v22.3
	c20.7,0,51.4,16.5,84,46.6c-14,14.7-28,31.4-41.3,49.9c-22.6,2.4-44,6.1-63.6,11c-2.3-10-4-19.7-5.2-29
	c-4.7-38.2,1.1-67.9,14.6-75.8c3-1.8,6.9-2.7,11.5-2.7V4.6l0,0c-8.4,0-16,1.9-22.6,5.7C99.2,26.5,92.9,77,107.4,140.4
	C45.2,159.6,4.7,190.3,4.7,222.7c0,32.5,40.7,63.3,103.1,82.4c-14.4,63.6-8,114.2,20.2,130.4c6.5,3.8,14.1,5.6,22.5,5.6
	c27.5,0,63.5-19.6,99.9-53.6c36.4,33.8,72.4,53.2,99.9,53.2c8.4,0,16-1.8,22.6-5.6c28.1-16.2,34.4-66.7,19.9-130.1
	C454.8,285.9,495.3,255.1,495.3,222.7z M365.1,156c-3.7,12.9-8.3,26.2-13.5,39.5c-4.1-8-8.4-16-13.1-24c-4.6-8-9.5-15.8-14.4-23.4
	C338.3,150.2,352,152.8,365.1,156z M319.3,262.5c-7.8,13.5-15.8,26.3-24.1,38.2c-14.9,1.3-30,2-45.2,2c-15.1,0-30.2-0.7-45-1.9
	c-8.3-11.9-16.4-24.6-24.2-38c-7.6-13.1-14.5-26.4-20.8-39.8c6.2-13.4,13.2-26.8,20.7-39.9c7.8-13.5,15.8-26.3,24.1-38.2
	c14.9-1.3,30-2,45.2-2c15.1,0,30.2,0.7,45,1.9c8.3,11.9,16.4,24.6,24.2,38c7.6,13.1,14.5,26.4,20.8,39.8
	C333.7,236,326.8,249.4,319.3,262.5z M351.6,249.5c5.4,13.4,10,26.8,13.8,39.8c-13.1,3.2-26.9,5.9-41.2,8
	c4.9-7.7,9.8-15.6,14.4-23.7C343.2,265.6,347.5,257.5,351.6,249.5z M250.2,356.2c-9.3-9.6-18.6-20.3-27.8-32
	c9,0.4,18.2,0.7,27.5,0.7c9.4,0,18.7-0.2,27.8-0.7C268.7,335.9,259.4,346.6,250.2,356.2z M175.8,297.3c-14.2-2.1-27.9-4.7-41-7.9
	c3.7-12.9,8.3-26.2,13.5-39.5c4.1,8,8.4,16,13.1,24S170.9,289.7,175.8,297.3z M249.7,89.2c9.3,9.6,18.6,20.3,27.8,32
	c-9-0.4-18.2-0.7-27.5-0.7c-9.4,0-18.7,0.2-27.8,0.7C231.2,109.5,240.5,98.8,249.7,89.2z M175.7,148.1c-4.9,7.7-9.8,15.6-14.4,23.7
	c-4.6,8-8.9,16-13,24c-5.4-13.4-10-26.8-13.8-39.8C147.6,152.9,161.4,150.2,175.7,148.1z M85.2,273.3
	c-35.4-15.1-58.3-34.9-58.3-50.6s22.9-35.6,58.3-50.6c8.6-3.7,18-7,27.7-10.1c5.7,19.6,13.2,40,22.5,60.9
	c-9.2,20.8-16.6,41.1-22.2,60.6C103.3,280.4,93.9,277,85.2,273.3z M139,416.2c-13.6-7.8-19.5-37.5-14.9-75.7
	c1.1-9.4,2.9-19.3,5.1-29.4c19.6,4.8,41,8.5,63.5,10.9c13.5,18.5,27.5,35.3,41.6,50c-32.6,30.3-63.2,46.9-84,46.9
	C145.8,418.8,142,417.9,139,416.2z M376.2,340c4.7,38.2-1.1,67.9-14.6,75.8c-3,1.8-6.9,2.6-11.5,2.6c-20.7,0-51.4-16.5-84-46.6
	c14-14.7,28-31.4,41.3-49.9c22.6-2.4,44-6.1,63.6-11C373.3,321,375.1,330.7,376.2,340z M414.7,273.3c-8.6,3.7-18,7-27.7,10.1
	c-5.7-19.6-13.2-40-22.5-60.9c9.2-20.8,16.6-41.1,22.2-60.6c9.9,3.1,19.3,6.5,28.1,10.2c35.4,15.1,58.3,34.9,58.3,50.6
	C473,238.4,450.1,258.3,414.7,273.3z"/>
<circle class="st0" cx="249.9" cy="222.7" r="45.7"/>
</svg>
